<svg width="160" height="18" fill="none" xmlns="http://www.w3.org/2000/svg"><g clip-path="url(#clip0_1158_36695)"><path d="M23.957 0h7.321l1.752 9.062h.052L40.022 0h6.973l-4.701 18H36.62l2.29-8.777h-.052L32.649 18h-3.435l-1.891-9.187h-.052L24.84 18h-5.585l4.701-18zM48.99 0h5.847l-4.702 18H44.29l4.7-18zM23.576 0h-7.304L1.682 11.52 0 18h5.551l1.301-4.967 2.741-1.977L13.15 18h6.02L13.825 7.78 23.576 0z" fill="#121C3E"/><path d="M14.312 0h-9.61l-2.5 9.579L14.312 0z" fill="#BA1D3C"/><path d="M56.815 11.733h1.491v1.976l1.579-1.976h1.995l-1.77 1.958 1.84 3.276h-1.84l-1.023-2.154-.78.872v1.282h-1.492v-5.234z" fill="#1C1C1C"/><path d="M61.914 14.35c0-.855.226-1.514.66-1.994.433-.481 1.058-.712 1.838-.712.798 0 1.423.231 1.856.694.434.463.66 1.122.66 1.958 0 .606-.105 1.104-.278 1.496-.19.392-.468.694-.833.908-.364.214-.815.32-1.335.32-.538 0-1.007-.089-1.354-.285-.364-.195-.642-.48-.867-.89-.243-.374-.347-.872-.347-1.495zm1.492 0c0 .534.087.908.278 1.14.173.23.433.338.746.338.33 0 .572-.107.745-.339.174-.231.26-.623.26-1.21 0-.481-.086-.855-.277-1.069-.19-.231-.434-.338-.746-.338a.895.895 0 00-.728.338c-.191.232-.278.623-.278 1.14zm4.25 2.617v-5.234h2.498c.469 0 .816.035 1.059.124.242.09.433.25.59.481.156.232.225.517.225.855 0 .285-.052.534-.174.748a1.65 1.65 0 01-.468.516c-.121.089-.312.16-.52.214.173.07.312.124.381.195.052.054.14.143.243.285.104.143.174.25.208.32l.729 1.514h-1.683l-.798-1.602c-.104-.214-.19-.338-.277-.41a.535.535 0 00-.365-.124h-.139v2.118h-1.509zm1.492-3.115h.625c.07 0 .208-.018.399-.072.104-.017.173-.07.243-.16a.475.475 0 00.086-.302.503.503 0 00-.156-.392c-.104-.09-.295-.143-.555-.143h-.66v1.069h.018zm3.627-2.119H76.8v1.122h-2.515v.836h2.324v1.069h-2.324v1.032h2.585v1.175h-4.095v-5.234zm7.753 4.38h-1.7l-.243.854H77.06l1.821-5.234h1.648l1.804 5.234h-1.56l-.244-.854zm-.33-1.14l-.52-1.887-.538 1.887h1.06zm4.634-3.24h1.978l.763 3.187.763-3.187h1.96v5.234h-1.231V12.98l-.954 3.988H87l-.955-3.988v3.988h-1.214v-5.234zm6.279 0h4.025v1.122h-2.515v.836h2.324v1.069h-2.324v1.032h2.584v1.175h-4.094v-5.234zm4.805 0h2.22c.434 0 .799.071 1.059.196.277.124.486.32.676.552.174.231.295.516.382.837.087.32.121.658.121 1.014 0 .57-.052.997-.173 1.3a2.36 2.36 0 01-.486.783 1.514 1.514 0 01-.676.41c-.33.089-.625.142-.885.142h-2.22v-5.234h-.018zm1.492 1.175v2.849h.364c.313 0 .538-.036.677-.107.139-.071.243-.214.312-.392.07-.196.104-.48.104-.908 0-.552-.087-.926-.243-1.14-.173-.213-.45-.302-.832-.302h-.382zm3.696-1.175h1.509v5.234h-1.509v-5.234zm5.691 3.08l1.318.427a2.74 2.74 0 01-.416.997 1.952 1.952 0 01-.712.606c-.277.142-.642.195-1.075.195-.521 0-.954-.089-1.301-.249-.33-.16-.625-.463-.868-.872-.243-.41-.364-.944-.364-1.603 0-.872.208-1.53.642-1.994.434-.463 1.023-.694 1.804-.694.607 0 1.093.142 1.44.41.347.267.607.676.781 1.228l-1.319.32a2.383 2.383 0 00-.139-.338.954.954 0 00-.312-.285.788.788 0 00-.399-.107c-.347 0-.59.143-.781.446-.138.213-.208.57-.208 1.032 0 .57.087.98.243 1.193a.84.84 0 00.694.32c.295 0 .503-.088.642-.267.156-.178.26-.427.33-.765zm4.891 1.3h-1.7l-.243.854h-1.526l1.821-5.234h1.648l1.805 5.234h-1.562l-.243-.854zm-.312-1.14l-.52-1.887-.538 1.887h1.058zm2.497-3.24h1.492v3.935h2.342v1.282h-3.834v-5.217zm6.576 0h1.51v5.234h-1.51v-5.234zm2.481 0h1.388l1.821 2.884v-2.884h1.405v5.234h-1.405l-1.804-2.884v2.884h-1.405v-5.234zm5.256 3.507l1.422-.089c.035.25.087.445.191.57.139.196.364.303.642.303.208 0 .381-.054.486-.16a.477.477 0 00.173-.375.48.48 0 00-.156-.356c-.104-.106-.364-.213-.763-.302-.66-.16-1.128-.374-1.406-.641a1.35 1.35 0 01-.416-1.015c0-.267.069-.516.208-.766a1.58 1.58 0 01.642-.57c.295-.142.694-.213 1.197-.213.625 0 1.093.125 1.423.374.329.25.52.64.572 1.175l-1.405.089c-.035-.231-.121-.41-.243-.499-.121-.106-.277-.16-.503-.16-.173 0-.312.036-.399.125-.087.089-.139.178-.139.285 0 .089.035.16.104.231.07.071.243.143.503.196.66.16 1.128.303 1.406.463.277.16.485.356.624.587.122.232.191.481.191.766 0 .338-.087.641-.26.926a1.622 1.622 0 01-.729.64c-.312.143-.694.214-1.162.214-.816 0-1.388-.178-1.718-.516-.277-.32-.451-.765-.485-1.282zm4.683-3.507h4.545v1.282h-1.526v3.934h-1.492v-3.934h-1.527v-1.282zm5.17 0h1.509v5.234h-1.509v-5.234zm2.135 0h4.545v1.282h-1.527v3.934h-1.492v-3.934h-1.526v-1.282zm8.257 0h1.492v3.116c0 .302-.052.605-.139.872a1.814 1.814 0 01-.416.712 1.543 1.543 0 01-.59.427 3.04 3.04 0 01-1.041.178c-.243 0-.485-.017-.763-.053-.278-.035-.52-.107-.694-.213a1.743 1.743 0 01-.52-.446 1.557 1.557 0 01-.313-.605c-.086-.338-.138-.623-.138-.89v-3.098h1.492v3.187c0 .285.069.516.225.659.139.16.347.249.607.249s.451-.09.607-.232c.139-.16.226-.373.226-.676v-3.187h-.035zm2.03 0h4.545v1.282h-1.526v3.934h-1.492v-3.934h-1.527v-1.282zm5.1 0h4.024v1.122h-2.515v.836h2.324v1.069h-2.324v1.032h2.585v1.175h-4.094v-5.234zM79.853 2.599h-1.006V.569h-2.55v7.638h2.55v-4.45h1.006V2.598zm-3.92 1.567c0-.659-.416-1.264-1.11-1.727h.902v-1.14h-3.088V.48h-2.55v.802h-3.244l1.058 1.14c-.694.462-1.11 1.067-1.11 1.726 0 1.46 2.047 2.635 4.58 2.635 2.515.018 4.562-1.157 4.562-2.617zm-6.28 0c0-.783.764-1.407 1.718-1.407s1.717.624 1.717 1.407c0 .766-.763 1.406-1.717 1.406-.954-.017-1.718-.64-1.718-1.406zm.381 2.991h-2.55V9.01c0 .623.469 1.14 1.059 1.14H78.83V9.01h-8.813V7.157h.017zm54.491 0h-2.55v1.851c0 .624.468 1.14 1.058 1.14h10.461v-1.14h-8.969V7.157zM130.944.57v.979h-1.492l1.058 1.139h.434v.837h-1.44c.017-.107.034-.214.034-.32 0-1.46-1.786-2.636-3.99-2.636-2.203 0-4.007 1.175-4.007 2.635 0 1.46 1.787 2.635 4.007 2.635 2.013 0 3.695-.997 3.956-2.26l1.023 1.103h.434v3.08h2.55V.57h-2.567zm-5.413 4.059c-.833 0-1.492-.623-1.492-1.407 0-.765.677-1.406 1.492-1.406.833 0 1.492.623 1.492 1.406.017.766-.659 1.407-1.492 1.407zm29.44 4.166V5.822h-2.915v2.973h-5.482l1.267 1.353h11.883V8.795h-4.753z" fill="#1C1C1C"/><path d="M152.976 1.709h1.37l3.99 4.86h1.666l-4.233-5.074.867-.926h-5.916l-3.695 6h3.002l2.949-4.86zm-32.373.89h-1.006V.569h-2.55v5.947h2.55v-2.76h1.006V2.6zM107.628 3.97c0 1.353 1.96 2.44 4.371 2.44 2.412 0 4.372-1.087 4.372-2.44 0-.57-.364-1.104-.954-1.513h1.024V1.299h-3.175V.48h-2.55v.802h-3.175l1.058 1.121c-.607.445-.971.98-.971 1.567zm4.354 1.282c-.902 0-1.631-.588-1.631-1.3 0-.712.729-1.3 1.631-1.3s1.631.588 1.631 1.3c.017.73-.729 1.3-1.631 1.3zm6.557 1.905h-10.738l1.058 1.14h8.188v1.851h2.55V8.315c0-.641-.468-1.158-1.058-1.158zm28.156-1.727h-1.214c.416 0 .763-.374.763-.837V1.71c0-.641-.468-1.14-1.058-1.14h-10.825l1.058 1.14h8.275v2.884c0 .463-.347.82-.763.837h-8.761l1.058 1.14h4.094v3.578h2.55v-3.58h4.806V5.43h.017zm-53.9-.356V3.917H80.287l1.058 1.139h4.303v1.745h-5.049l1.059 1.14h8.275v2.207h2.55v-2.19c0-.64-.469-1.14-1.059-1.14h-3.226V5.075h4.597z" fill="#1C1C1C"/><path d="M89.933 1.709v1.37c0 .464-.347.838-.781.838h2.55c.434 0 .763-.374.763-.837V1.709c0-.641-.468-1.14-1.058-1.14H80.582l1.058 1.14h8.293zM98.486 6.8c2.533 0 4.563-1.406 4.563-3.133S101.002.534 98.486.534c-2.533 0-4.58 1.406-4.58 3.133s2.047 3.134 4.58 3.134zm0-4.949c1.024 0 1.856.801 1.856 1.798s-.832 1.799-1.856 1.799c-1.023 0-1.856-.802-1.856-1.799 0-.997.833-1.798 1.856-1.798z" fill="#1C1C1C"/><path d="M103.569.57v5.18c0 .98-.746 1.78-1.665 1.78h-8.57l1.058 1.14h7.911c.503 0 .937-.231 1.249-.605v2.083h2.55V.569h-2.533zm-44.065.694v1.353h.364V1.264h.798v4.023h-.797V3.311h-.365v1.976h-.763v-.819l-.52.481a1.876 1.876 0 01-.521-.32 1.407 1.407 0 01-.26-.303.836.836 0 01-.26.303 1.873 1.873 0 01-.52.32l-.521-.498a1.32 1.32 0 00.59-.517c.156-.249.242-.587.242-.997V1.922h-.468V1.3h1.822v.623h-.469v1.015c0 .428.07.748.226 1.015.138.214.347.392.607.516V1.264h.815zm4.683.036v.694h-1.596v.89h1.857V1.246h1.075v.997h.451v.677h-.45v1.193h-1.076V3.56h-2.273c-.208 0-.382-.054-.486-.143-.104-.089-.156-.231-.156-.41V1.3h2.654zm-1.214 3.293h2.585v.677h-3.001c-.208 0-.382-.054-.486-.143a.544.544 0 01-.156-.41v-.871h1.075v.747h-.017zm-5.377 1.585v.285h.485v-.285h1.041V6.8h.4v-.676h1.075v2.154H59.52v-.784h-.399v.66h-1.908c-.208 0-.382-.054-.486-.143a.527.527 0 01-.173-.41V6.178h1.04zm.295 2.243v.196h1.648v-.196h1.075v1.727h-3.14c-.208 0-.381-.053-.486-.142-.104-.09-.156-.232-.156-.41V8.421h1.059zm-.295-1.3v.374h.485v-.373h-.485zm.295 2.137v.267h1.648v-.267H57.89zm5.985-2.813c.242.213.364.48.364.8 0 .321-.122.588-.364.802-.26.25-.625.374-1.059.374-.45 0-.798-.125-1.058-.374-.243-.214-.347-.48-.347-.801 0-.32.121-.588.347-.801.26-.25.625-.374 1.058-.374.434 0 .798.124 1.059.374zM62.869 9.47h2.741v.677h-3.157c-.226 0-.382-.053-.486-.143a.527.527 0 01-.173-.409v-.89h1.075v.765zm-.364-2.635a.752.752 0 00-.104.41c0 .16.035.303.104.41.07.124.173.177.312.177a.328.328 0 00.313-.178.712.712 0 00.104-.41.752.752 0 00-.105-.409.385.385 0 00-.312-.178.329.329 0 00-.312.178zm3.07-.712V8.99H64.5V6.124h1.076z" fill="#1C1C1C"/></g><defs><clipPath id="clip0_1158_36695"><path fill="#fff" d="M0 0h160v18H0z"/></clipPath></defs></svg>