<svg width="310" height="34" fill="none" xmlns="http://www.w3.org/2000/svg"><g clip-path="url(#clip0_430_57771)" fill="#fff"><path d="M46.417 0h14.184l3.395 17.118h.101L77.542 0h13.512l-9.11 34h-10.99l4.437-16.58h-.101L63.257 34h-6.655l-3.664-17.353h-.1L48.131 34H37.309l9.108-34zM94.92 0h11.326l-9.108 34H85.81l9.11-34zM45.678 0h-14.15L3.26 21.759 0 34h10.756l2.52-9.383 5.311-3.733L25.477 34h11.664L26.789 14.696 45.678 0zM27.73 0H9.109l-4.84 18.093L27.729 0zm82.348 22.163h2.891v3.733l3.058-3.733h3.866l-3.429 3.7 3.563 6.187h-3.563l-1.983-4.069-1.512 1.648v2.421h-2.891v-9.887z"/><path d="M119.96 27.106c0-1.614.437-2.859 1.277-3.767.84-.908 2.051-1.345 3.563-1.345 1.546 0 2.756.437 3.596 1.312.841.874 1.278 2.118 1.278 3.699 0 1.143-.202 2.085-.538 2.825a3.984 3.984 0 01-1.613 1.715c-.706.404-1.58.605-2.589.605-1.041 0-1.949-.168-2.621-.538-.706-.37-1.244-.908-1.681-1.681-.47-.706-.672-1.648-.672-2.825zm2.891 0c0 1.009.168 1.715.537 2.152.336.437.841.64 1.446.64.638 0 1.109-.203 1.445-.64.336-.437.504-1.177.504-2.287 0-.908-.168-1.614-.538-2.017-.369-.438-.84-.64-1.445-.64-.571 0-1.042.202-1.412.64-.369.437-.537 1.177-.537 2.152zm8.234 4.944v-9.887h4.84c.908 0 1.58.067 2.05.235.471.169.841.471 1.143.909.303.437.437.975.437 1.614 0 .538-.101 1.009-.336 1.412a3.143 3.143 0 01-.908.976c-.235.168-.605.302-1.008.403.336.135.605.236.74.37.1.1.268.269.47.538.202.27.336.47.403.605l1.412 2.859h-3.26l-1.546-3.027c-.202-.403-.37-.639-.538-.773a1.055 1.055 0 00-.706-.236h-.269v4.002h-2.924zm2.891-5.885h1.21c.134 0 .403-.034.773-.134.201-.034.336-.135.47-.303.135-.168.168-.37.168-.572 0-.302-.101-.572-.302-.74-.202-.168-.572-.269-1.076-.269h-1.277v2.018h.034zm7.025-4.002h7.798v2.119h-4.874v1.58h4.504v2.018h-4.504v1.95h5.008v2.22h-7.932v-9.887zm15.024 8.273h-3.294l-.47 1.614h-2.958l3.529-9.887h3.193l3.496 9.887h-3.025l-.471-1.614zm-.639-2.152l-1.008-3.565-1.042 3.565h2.05zm8.975-6.121h3.832l1.479 6.02 1.479-6.02h3.798v9.887h-2.386v-7.533l-1.849 7.533h-2.151l-1.849-7.533v7.533h-2.353v-9.887zm12.167 0h7.798v2.119h-4.873v1.58h4.503v2.018h-4.503v1.95h5.008v2.22h-7.933v-9.887zm9.311 0h4.302c.84 0 1.546.135 2.05.37.538.235.942.605 1.311 1.043.336.437.572.975.74 1.58.168.606.235 1.245.235 1.917 0 1.076-.101 1.883-.336 2.455-.235.572-.538 1.076-.941 1.48a2.95 2.95 0 01-1.311.773c-.639.168-1.21.27-1.714.27h-4.303v-9.888h-.033zm2.89 2.22v5.38h.706c.605 0 1.042-.067 1.311-.201.269-.135.471-.404.605-.74.135-.37.202-.908.202-1.715 0-1.043-.168-1.75-.471-2.153-.336-.403-.874-.571-1.613-.571h-.74zm7.16-2.22h2.924v9.887h-2.924v-9.887zm11.024 5.817l2.555.808c-.168.74-.437 1.379-.807 1.883a3.75 3.75 0 01-1.378 1.143c-.538.27-1.243.37-2.084.37-1.008 0-1.848-.168-2.521-.47-.638-.303-1.21-.875-1.68-1.648-.471-.774-.706-1.783-.706-3.027 0-1.648.403-2.892 1.244-3.767.84-.874 1.983-1.311 3.495-1.311 1.177 0 2.118.269 2.79.773.672.505 1.176 1.278 1.513 2.32l-2.555.606c-.101-.302-.202-.504-.269-.639a1.844 1.844 0 00-.605-.538 1.56 1.56 0 00-.773-.202c-.672 0-1.143.27-1.512.841-.269.404-.404 1.076-.404 1.95 0 1.077.168 1.85.471 2.254.336.404.773.605 1.344.605.572 0 .975-.168 1.244-.504.302-.337.504-.807.638-1.446zm9.478 2.456h-3.294l-.47 1.614h-2.958l3.529-9.887h3.193l3.496 9.887h-3.025l-.471-1.614zm-.605-2.152l-1.008-3.565-1.042 3.565h2.05zm4.841-6.121h2.891v7.432h4.537v2.422h-7.428v-9.854zm12.738 0h2.924v9.887h-2.924v-9.887zm4.807 0h2.689l3.529 5.448v-5.448h2.723v9.887h-2.723l-3.496-5.448v5.448h-2.722v-9.887zm10.184 6.625l2.757-.168c.067.47.168.84.369 1.076.269.37.706.572 1.244.572.403 0 .739-.101.941-.303a.89.89 0 00.336-.706c0-.27-.101-.471-.302-.673-.202-.202-.706-.403-1.479-.572-1.277-.302-2.185-.706-2.723-1.21-.538-.505-.806-1.144-.806-1.917 0-.505.134-.976.403-1.446.269-.438.706-.807 1.244-1.076.571-.27 1.344-.404 2.319-.404 1.21 0 2.117.235 2.756.706.639.471 1.008 1.21 1.109 2.22l-2.722.168c-.068-.437-.236-.774-.471-.942-.235-.201-.538-.302-.975-.302-.336 0-.605.067-.773.235-.168.168-.269.336-.269.538 0 .168.067.303.202.437.134.135.471.27.975.37 1.277.303 2.184.572 2.722.875.538.302.941.672 1.21 1.11.236.437.37.907.37 1.445 0 .64-.168 1.211-.504 1.75a3.11 3.11 0 01-1.412 1.21c-.605.269-1.344.404-2.252.404-1.58 0-2.689-.337-3.327-.976-.538-.605-.874-1.446-.942-2.421zm9.076-6.625h8.806v2.421h-2.958v7.433h-2.891v-7.433h-2.957v-2.42zm10.015 0h2.924v9.887h-2.924v-9.887zm4.135 0h8.806v2.421h-2.958v7.433h-2.89v-7.433h-2.958v-2.42zm15.999 0h2.891v5.885a5.29 5.29 0 01-.269 1.648 3.428 3.428 0 01-.807 1.345c-.369.404-.773.673-1.142.808a6.027 6.027 0 01-2.017.336c-.471 0-.941-.034-1.479-.101-.538-.067-1.008-.202-1.345-.404a3.379 3.379 0 01-1.008-.84c-.302-.37-.504-.74-.605-1.144-.168-.639-.269-1.177-.269-1.681v-5.852h2.891v6.02c0 .538.134.975.437 1.244.269.303.672.471 1.176.471.504 0 .874-.168 1.177-.437.269-.303.437-.706.437-1.278v-6.02h-.068zm3.933 0h8.806v2.421h-2.958v7.433h-2.891v-7.433h-2.957v-2.42zm9.882 0h7.797v2.119h-4.873v1.58h4.504v2.018h-4.504v1.95h5.008v2.22h-7.932v-9.887zM154.715 4.91h-1.95V1.076h-4.941v14.428h4.941V7.096h1.95V4.91zm-7.596 2.96c0-1.245-.807-2.388-2.152-3.262h1.748V2.455h-5.983V.908h-4.941v1.514h-6.285l2.05 2.152c-1.344.874-2.151 2.018-2.151 3.262 0 2.758 3.966 4.977 8.874 4.977 4.873.034 8.84-2.186 8.84-4.943zm-12.168 0c0-1.48 1.479-2.657 3.328-2.657 1.848 0 3.327 1.177 3.327 2.657 0 1.446-1.479 2.656-3.327 2.656-1.849-.033-3.328-1.21-3.328-2.656zm.74 5.65h-4.941v3.497c0 1.177.908 2.152 2.05 2.152h19.932v-2.152h-17.075V13.52h.034zm105.573 0h-4.941v3.497c0 1.177.908 2.152 2.051 2.152h20.267v-2.152h-17.377V13.52zm12.437-12.444v1.85h-2.891l2.051 2.152h.84v1.58h-2.79a3.65 3.65 0 00.067-.605c0-2.757-3.462-4.977-7.73-4.977-4.269 0-7.765 2.22-7.765 4.977 0 2.758 3.462 4.978 7.765 4.978 3.899 0 7.159-1.884 7.663-4.271l1.983 2.085h.84v5.818h4.941V1.076h-4.974zm-10.487 7.668c-1.613 0-2.891-1.177-2.891-2.657 0-1.446 1.311-2.657 2.891-2.657 1.613 0 2.891 1.177 2.891 2.657.033 1.446-1.278 2.657-2.891 2.657zm57.039 7.869v-5.616h-5.646v5.616h-10.622l2.454 2.556h23.024v-2.556h-9.21z"/><path d="M296.388 3.228h2.655l7.731 9.181h3.227L301.8 2.825l1.68-1.749h-11.461l-7.16 11.334h5.815l5.714-9.181zM233.669 4.91h-1.95V1.076h-4.941V12.31h4.941V7.096h1.95V4.91zM208.527 7.5c0 2.556 3.799 4.607 8.471 4.607 4.672 0 8.47-2.051 8.47-4.607 0-1.076-.706-2.085-1.849-2.859h1.983V2.455h-6.151V.908h-4.941v1.514h-6.151l2.051 2.118c-1.177.841-1.883 1.85-1.883 2.96zm8.437 2.421c-1.748 0-3.16-1.11-3.16-2.455s1.412-2.455 3.16-2.455c1.748 0 3.159 1.11 3.159 2.455.034 1.379-1.411 2.455-3.159 2.455zm12.705 3.599h-20.806l2.051 2.152h15.864v3.497h4.941v-3.463c0-1.211-.907-2.186-2.05-2.186zm54.552-3.263h-2.353c.807 0 1.479-.706 1.479-1.58V3.229c0-1.211-.908-2.153-2.05-2.153h-20.974l2.05 2.152h16.033v5.449a1.56 1.56 0 01-1.479 1.58h-16.974l2.05 2.152h7.933v6.76h4.941v-6.76h9.31v-2.152h.034zm-104.432-.673V7.398h-24.234l2.05 2.153h8.336v3.296h-9.781l2.05 2.152h16.033v4.17h4.941v-4.136c0-1.211-.908-2.153-2.051-2.153h-6.251V9.584h8.907zm-5.546-6.356v2.59c0 .874-.673 1.58-1.513 1.58h4.941c.84 0 1.479-.706 1.479-1.58v-2.59c0-1.21-.908-2.152-2.05-2.152h-20.974l2.05 2.152h16.067zm16.571 9.619c4.907 0 8.84-2.657 8.84-5.92 0-3.261-3.966-5.918-8.84-5.918-4.907 0-8.874 2.657-8.874 5.919 0 3.262 3.967 5.919 8.874 5.919zm0-9.35c1.983 0 3.596 1.514 3.596 3.397 0 1.883-1.613 3.397-3.596 3.397s-3.597-1.514-3.597-3.397c0-1.883 1.614-3.397 3.597-3.397z"/><path d="M200.662 1.076v9.787c0 1.85-1.445 3.363-3.227 3.363h-16.604l2.05 2.152h15.327c.975 0 1.815-.437 2.42-1.144v3.935h4.941V1.076h-4.907zm-85.374 1.312v2.556h.706V2.388h1.546v7.6h-1.546V6.255h-.706v3.733h-1.479V8.441l-1.008.908a3.653 3.653 0 01-1.008-.605 2.689 2.689 0 01-.505-.572c-.1.202-.268.404-.504.572a3.653 3.653 0 01-1.008.605l-1.008-.942c.504-.235.907-.571 1.142-.975.303-.47.471-1.11.471-1.883V3.632h-.908V2.455h3.53v1.177h-.908v1.917c0 .807.135 1.412.437 1.917.269.403.672.74 1.176.975V2.388h1.58zm9.075.067v1.312h-3.092v1.681h3.596V2.354h2.084v1.884h.874v1.278h-.874v2.253h-2.084V6.726h-4.403c-.403 0-.739-.1-.941-.269-.201-.168-.302-.437-.302-.773V2.455h5.142zm-2.353 6.222h5.009v1.278h-5.815c-.404 0-.74-.101-.941-.27-.202-.2-.303-.436-.303-.773V7.264h2.084v1.413h-.034zm-10.419 2.993v.538h.941v-.538h2.017v1.177h.773V11.57h2.084v4.07h-2.084v-1.48h-.773v1.244h-3.698c-.403 0-.739-.1-.941-.269-.201-.168-.336-.437-.336-.773v-2.69h2.017zm.571 4.238v.37h3.193v-.37h2.084v3.262h-6.083c-.404 0-.74-.101-.941-.27-.202-.167-.303-.436-.303-.773v-2.22h2.05zm-.571-2.455v.706h.941v-.706h-.941zm.571 4.035v.505h3.193v-.505h-3.193zm11.596-5.314c.471.404.706.908.706 1.513 0 .606-.235 1.11-.706 1.514-.504.47-1.21.706-2.05.706-.874 0-1.546-.236-2.05-.706-.471-.404-.673-.908-.673-1.514 0-.605.236-1.11.673-1.513.504-.47 1.21-.706 2.05-.706.84 0 1.546.235 2.05.706zm-1.949 5.717h5.31v1.278h-6.117c-.437 0-.739-.1-.941-.269-.202-.168-.336-.437-.336-.773v-1.682h2.084v1.446zm-.706-4.977c-.135.202-.202.47-.202.773 0 .303.067.572.202.774.134.235.336.336.605.336.269 0 .47-.1.605-.336.134-.202.202-.437.202-.774 0-.302-.068-.571-.202-.773a.752.752 0 00-.605-.336c-.269 0-.471.1-.605.336zm5.949-1.345v5.414h-2.084V11.57h2.084z"/></g><defs><clipPath id="clip0_430_57771"><path fill="#fff" d="M0 0h310v34H0z"/></clipPath></defs></svg>