<svg width="34" height="34" fill="none" xmlns="http://www.w3.org/2000/svg"><path d="M21.667 10.454H18.88C18.6 9.611 17.867 9 17 9s-1.6.61-1.88 1.454h-2.787c-.733 0-1.333.655-1.333 1.455v11.636c0 .8.6 1.455 1.333 1.455h9.334C22.4 25 23 24.346 23 23.546V11.909c0-.8-.6-1.455-1.333-1.455zm-4.667 0c.367 0 .667.328.667.728 0 .4-.3.727-.667.727-.367 0-.667-.327-.667-.727 0-.4.3-.728.667-.728zm4 13.091h-8c-.367 0-.667-.327-.667-.727V12.636c0-.4.3-.727.667-.727h.667v.727c0 .8.6 1.455 1.333 1.455h4c.733 0 1.333-.655 1.333-1.455v-.727H21c.367 0 .667.327.667.727v10.182c0 .4-.3.727-.667.727z" fill="#253981"/></svg>