<svg width="34" height="34" fill="none" xmlns="http://www.w3.org/2000/svg"><path d="M20.636 16.143c1.51 0 2.719-1.149 2.719-2.572 0-1.422-1.21-2.571-2.719-2.571s-2.727 1.149-2.727 2.571c0 1.423 1.218 2.572 2.727 2.572zm-7.272 0c1.509 0 2.718-1.149 2.718-2.572 0-1.422-1.21-2.571-2.718-2.571-1.51 0-2.728 1.149-2.728 2.571 0 1.423 1.219 2.572 2.728 2.572zm0 1.714c-2.119 0-6.364 1.003-6.364 3v1.286c0 .471.41.857.91.857h10.908c.5 0 .91-.386.91-.857v-1.286c0-1.997-4.246-3-6.364-3zm7.272 0c-.263 0-.563.017-.881.043.018.009.027.026.036.034 1.036.712 1.755 1.663 1.755 2.923v1.286c0 .3-.064.591-.164.857h4.709c.5 0 .909-.386.909-.857v-1.286c0-1.997-4.245-3-6.364-3z" fill="#253981"/></svg>