<svg width="34" height="34" fill="none" xmlns="http://www.w3.org/2000/svg"><path d="M17.634 23.489h-7.85c-.43 0-.784.34-.784.755 0 .416.353.756.785.756h7.849c.431 0 .785-.34.785-.756 0-.415-.354-.755-.785-.755zM14.55 11.58l-2.222 2.138 9.992 9.62a1.615 1.615 0 002.22 0c.613-.59.613-1.55 0-2.139l-9.99-9.62zm6.663 0l-2.221-2.14a1.609 1.609 0 00-2.222.008l-1.106 1.065 4.434 4.277 1.115-1.073a1.474 1.474 0 000-2.138zm-5.549 7.48l-4.443-4.276-1.107 1.065a1.475 1.475 0 000 2.139l2.222 2.138c.612.59 1.609.59 2.221 0l1.107-1.065z" fill="#253981"/></svg>