<svg width="34" height="34" fill="none" xmlns="http://www.w3.org/2000/svg"><path d="M26 13.591c0-.54-.413-.982-.919-.982h-6.43c-.506 0-.92.442-.92.982 0 .541.414.983.92.983h6.43c.506 0 .919-.442.919-.982zm-8.268 7.862c0 .54.413.982.918.982h6.431c.506 0 .919-.442.919-.982s-.413-.983-.919-.983h-6.43c-.506 0-.92.442-.92.983zM15.407 10.28a1.027 1.027 0 010 1.386l-3.886 4.176a.884.884 0 01-1.305 0L8.27 13.749a1.027 1.027 0 010-1.386.874.874 0 011.295 0l1.305 1.396 3.252-3.479a.879.879 0 011.286 0zm.01 7.87a1.027 1.027 0 010 1.386l-3.887 4.177a.884.884 0 01-1.304 0L8.269 21.61a1.027 1.027 0 010-1.386.873.873 0 011.295 0l1.305 1.396 3.252-3.479a.881.881 0 011.295.01z" fill="#7E8397"/></svg>