<svg width="34" height="34" fill="none" xmlns="http://www.w3.org/2000/svg"><path d="M22.6 13.5h-3.5v-2.1c0-.77-.63-1.4-1.4-1.4h-1.4c-.77 0-1.4.63-1.4 1.4v2.1h-3.5c-.77 0-1.4.63-1.4 1.4v7.7c0 .77.63 1.4 1.4 1.4h11.2c.77 0 1.4-.63 1.4-1.4v-7.7c0-.77-.63-1.4-1.4-1.4zm-6.3-2.1h1.4v3.5h-1.4v-3.5zm-2.8 8.4h-.7a.702.702 0 01-.7-.7c0-.385.315-.7.7-.7h.7v-.7c0-.385.315-.7.7-.7.385 0 .7.315.7.7v.7h.7c.385 0 .7.315.7.7 0 .385-.315.7-.7.7h-.7v.7c0 .385-.315.7-.7.7a.702.702 0 01-.7-.7v-.7zm4.725-1.05a.529.529 0 01-.525-.525c0-.287.238-.525.525-.525h3.15c.287 0 .525.238.525.525a.529.529 0 01-.525.525h-3.15zm0 2.1a.529.529 0 01-.525-.525c0-.287.238-.525.525-.525h1.75c.287 0 .525.238.525.525a.529.529 0 01-.525.525h-1.75z" fill="#7E8397"/></svg>