<svg width="30" height="30" fill="none" xmlns="http://www.w3.org/2000/svg"><path d="M7 22v-2h2v-7c0-1.383.417-2.613 1.25-3.688.833-1.075 1.917-1.779 3.25-2.112v-.7c0-.417.146-.77.438-1.062A1.444 1.444 0 0115 5c.417 0 .77.146 1.062.438.292.291.438.645.438 1.062v.7c1.333.333 2.417 1.037 3.25 2.112C20.583 10.387 21 11.617 21 13v7h2v2H7zm8 3c-.55 0-1.02-.196-1.412-.587A1.927 1.927 0 0113 23h4a1.93 1.93 0 01-.587 1.413A1.928 1.928 0 0115 25zm-4-5h8v-7c0-1.1-.392-2.042-1.175-2.825C17.042 9.392 16.1 9 15 9s-2.042.392-2.825 1.175C11.392 10.958 11 11.9 11 13v7z" fill="#A4A4A4"/></svg>