<svg width="32" height="32" fill="none" xmlns="http://www.w3.org/2000/svg"><rect width="32" height="32" rx="12" fill="#1C1C1C" fill-opacity=".05"/><path d="M12.706 20.737h4.117c.179 0 .327-.06.444-.179a.623.623 0 00.174-.453.632.632 0 00-.174-.442.578.578 0 00-.444-.19h-4.117a.575.575 0 00-.442.19.63.63 0 00-.176.442.62.62 0 00.176.453.593.593 0 00.442.179zm0-3.263h6.588c.178 0 .326-.06.443-.18a.62.62 0 00.175-.452.623.623 0 00-.175-.453.595.595 0 00-.443-.178h-6.588a.592.592 0 00-.442.178.621.621 0 00-.176.453c0 .183.059.333.176.452a.59.59 0 00.442.18zm0-3.264h6.588a.578.578 0 00.443-.189.632.632 0 00.175-.442.62.62 0 00-.175-.452.594.594 0 00-.443-.18h-6.588a.591.591 0 00-.442.18.619.619 0 00-.176.452.63.63 0 00.176.442c.116.126.264.19.442.19zm-2.224 8.527h11.036c.055 0 .11-.028.164-.084.055-.056.083-.113.083-.169V11.2c0-.056-.028-.112-.083-.168-.054-.057-.11-.085-.164-.085H10.482c-.054 0-.11.028-.164.085-.055.056-.083.112-.083.168v11.284c0 .056.028.112.083.169.055.056.11.084.164.084zm0 1.263c-.411 0-.761-.147-1.05-.442A1.479 1.479 0 019 22.484V11.2c0-.421.144-.779.432-1.074a1.414 1.414 0 011.05-.442h3.665a1.9 1.9 0 01.608-1.19C15.105 8.164 15.52 8 16 8c.494 0 .913.165 1.256.494.343.33.542.727.597 1.19h3.665c.411 0 .761.148 1.05.442.288.295.432.653.432 1.074v11.284c0 .421-.144.78-.432 1.074a1.414 1.414 0 01-1.05.442H10.482zM16 10.4c.178 0 .326-.06.443-.18a.62.62 0 00.175-.452.623.623 0 00-.175-.453.595.595 0 00-.443-.178.592.592 0 00-.442.178.621.621 0 00-.176.453.62.62 0 00.176.453.59.59 0 00.442.179z" fill="#1C1C1C" fill-opacity=".4"/></svg>