<svg width="46" height="46" fill="none" xmlns="http://www.w3.org/2000/svg"><rect width="46" height="46" rx="16" fill="#253981"/><path opacity=".15" d="M46 28.58V43.5c0 1.38-.934 2.5-2.087 2.5H18c1.274-11.294 9.353-20 19.13-20 3.198 0 6.214.931 8.87 2.58z" fill="#2F7AD3"/><path d="M27.222 22.506a.8.8 0 00-1.119 0l-4.591 4.568-1.679-1.67a.8.8 0 00-1.119 0 .79.79 0 000 1.113l2.048 2.038a1.057 1.057 0 001.489 0l4.96-4.936a.78.78 0 00.011-1.113zM30.39 14.6h-1.056v-1.05a1.056 1.056 0 00-2.11 0v1.05h-8.445v-1.05a1.056 1.056 0 00-2.111 0v1.05H15.61c-1.172 0-2.1.945-2.1 2.1l-.01 14.7c0 1.155.94 2.1 2.111 2.1H30.39a2.112 2.112 0 002.111-2.1V16.7c0-1.155-.95-2.1-2.111-2.1zm-1.056 16.8H16.667c-.58 0-1.056-.473-1.056-1.05v-10.5H30.39v10.5c0 .577-.475 1.05-1.056 1.05z" fill="#fff"/></svg>