<svg width="44" height="146" fill="none" xmlns="http://www.w3.org/2000/svg"><rect x="10.5" y="10.5" width="23" height="23" rx="3.5" stroke="#1C1C1C" stroke-opacity=".2"/><rect x="10" y="44" width="24" height="24" rx="4" fill="#253981"/><path d="M19.331 59.105l-2.92-2.783a.849.849 0 00-1.167 0 .757.757 0 000 1.113l3.495 3.332a.86.86 0 001.176 0l8.841-8.421a.757.757 0 000-1.113.85.85 0 00-1.168 0l-8.257 7.872z" fill="#fff"/><rect x="10.5" y="44.5" width="23" height="23" rx="3.5" stroke="#1C1C1C" stroke-opacity=".2"/><rect x="10" y="78" width="24" height="24" rx="4" fill="#1C1C1C" fill-opacity=".2"/><rect x="10.5" y="78.5" width="23" height="23" rx="3.5" stroke="#1C1C1C" stroke-opacity=".2"/><rect x="10" y="112" width="24" height="24" rx="4" fill="#1C1C1C" fill-opacity=".4"/><path d="M19.331 127.105l-2.92-2.783a.85.85 0 00-1.167 0 .757.757 0 000 1.113l3.495 3.332a.858.858 0 001.176 0l8.841-8.421a.757.757 0 000-1.113.847.847 0 00-1.168 0l-8.257 7.872z" fill="#fff"/><rect x="10.5" y="112.5" width="23" height="23" rx="3.5" stroke="#1C1C1C" stroke-opacity=".2"/></svg>