<svg width="32" height="32" fill="none" xmlns="http://www.w3.org/2000/svg"><path d="M21.833 9.6H21v-.8c0-.44-.375-.8-.833-.8-.459 0-.834.36-.834.8v.8h-6.666v-.8c0-.44-.375-.8-.834-.8-.458 0-.833.36-.833.8v.8h-.833c-.925 0-1.659.72-1.659 1.6L8.5 22.4c0 .88.742 1.6 1.667 1.6h11.666c.917 0 1.667-.72 1.667-1.6V11.2c0-.88-.75-1.6-1.667-1.6zM21 22.4H11c-.458 0-.833-.36-.833-.8v-8h11.666v8c0 .44-.375.8-.833.8zm-8.333-7.2h2.5c.458 0 .833.36.833.8v2.4c0 .44-.375.8-.833.8h-2.5c-.459 0-.834-.36-.834-.8V16c0-.44.375-.8.834-.8z" fill="#7E8397"/></svg>