<svg width="46" height="46" fill="none" xmlns="http://www.w3.org/2000/svg"><rect width="46" height="46" rx="16" fill="#253981"/><path opacity=".15" d="M46 28.58V43.5c0 1.38-.934 2.5-2.087 2.5H18c1.274-11.294 9.353-20 19.13-20 3.198 0 6.214.931 8.87 2.58z" fill="#2F7AD3"/><path d="M30.389 14.6h-1.056v-1.05a1.056 1.056 0 00-2.11 0v1.05h-8.445v-1.05a1.056 1.056 0 00-2.111 0v1.05H15.61c-1.172 0-2.1.945-2.1 2.1l-.01 14.7c0 1.155.94 2.1 2.111 2.1H30.39a2.112 2.112 0 002.111-2.1V16.7c0-1.155-.95-2.1-2.111-2.1zm-1.056 16.8H16.667c-.58 0-1.056-.473-1.056-1.05v-10.5H30.39v10.5c0 .577-.475 1.05-1.056 1.05zm-10.555-9.45h3.166c.581 0 1.056.473 1.056 1.05v3.15c0 .578-.475 1.05-1.056 1.05h-3.166c-.58 0-1.056-.473-1.056-1.05V23c0-.578.475-1.05 1.056-1.05z" fill="#fff"/></svg>