<svg width="20" height="20" fill="none" xmlns="http://www.w3.org/2000/svg"><path d="M17.424 5.11l-7.997 8.003a.796.796 0 01-1.127 0l-2.263-2.265A.797.797 0 117.164 9.72l1.695 1.696 7.43-7.434a.796.796 0 011.127 0 .79.79 0 01.008 1.128zM13.01 2.59a8.028 8.028 0 00-4.487-.457C5.27 2.717 2.67 5.343 2.118 8.6c-.911 5.402 3.583 10.028 8.948 9.331 3.167-.408 5.822-2.769 6.654-5.85a7.744 7.744 0 00.168-3.377c-.104-.64-.896-.888-1.36-.432a.806.806 0 00-.216.712 6.021 6.021 0 01-.416 3.41c-.927 2.168-2.942 3.76-5.285 3.977a6.405 6.405 0 01-6.957-7.187c.343-2.833 2.622-5.137 5.445-5.53a6.371 6.371 0 013.815.649.803.803 0 00.744-1.424c-.217-.097-.432-.2-.648-.289z" fill="#2F7AD3"/></svg>