<svg width="20" height="20" fill="none" xmlns="http://www.w3.org/2000/svg"><path d="M10 2c-4.416 0-8 3.584-8 8s3.584 8 8 8 8-3.584 8-8-3.584-8-8-8zm0 14.4A6.408 6.408 0 013.6 10c0-3.528 2.872-6.4 6.4-6.4 3.528 0 6.4 2.872 6.4 6.4 0 3.528-2.872 6.4-6.4 6.4zm-.8-3.2h1.6v1.6H9.2v-1.6zm1.288-7.968a3.202 3.202 0 00-3.544 2.232.725.725 0 00.696.936h.16c.328 0 .592-.232.704-.536a1.602 1.602 0 011.84-1.024c.76.16 1.32.904 1.256 1.68-.08 1.072-1.296 1.304-1.96 2.304 0 .008-.008.008-.008.016-.008.016-.016.024-.024.04-.072.12-.144.256-.2.4-.008.024-.024.04-.032.064-.008.016-.008.032-.016.056-.096.272-.16.6-.16 1h1.6a1.7 1.7 0 01.224-.856c.016-.024.024-.048.04-.072.064-.112.144-.216.224-.312.008-.008.016-.024.024-.032.08-.096.168-.184.264-.272.768-.728 1.808-1.32 1.592-2.848-.192-1.392-1.288-2.568-2.68-2.776z" fill="#fff"/></svg>