<svg width="46" height="46" fill="none" xmlns="http://www.w3.org/2000/svg"><rect width="46" height="46" rx="16" fill="#253981"/><path opacity=".15" d="M46 28.58V43.5c0 1.38-.934 2.5-2.087 2.5H18c1.274-11.294 9.353-20 19.13-20 3.198 0 6.214.931 8.87 2.58z" fill="#2F7AD3"/><path d="M32.744 16.582L22.248 27.085c-.41.41-1.07.41-1.48 0l-2.97-2.972a1.047 1.047 0 111.48-1.481l2.225 2.227 9.75-9.758c.41-.41 1.07-.41 1.48 0 .42.41.42 1.071.01 1.481zm-5.794-3.309a10.535 10.535 0 00-5.888-.598c-4.272.766-7.683 4.212-8.407 8.486-1.196 7.09 4.702 13.161 11.745 12.248 4.156-.536 7.64-3.635 8.732-7.678.42-1.545.462-3.036.22-4.433-.136-.84-1.175-1.166-1.784-.567a1.058 1.058 0 00-.283.935c.23 1.397.126 2.888-.546 4.474-1.218 2.847-3.862 4.937-6.938 5.22-5.352.494-9.792-4.043-9.13-9.432.45-3.718 3.442-6.743 7.147-7.258a8.363 8.363 0 015.006.851 1.054 1.054 0 00.976-1.87c-.283-.126-.567-.262-.85-.378z" fill="#fff"/></svg>