<svg width="46" height="46" fill="none" xmlns="http://www.w3.org/2000/svg"><rect width="46" height="46" rx="16" fill="#253981"/><path opacity=".15" d="M46 28.58V43.5c0 1.38-.934 2.5-2.087 2.5H18c1.274-11.294 9.353-20 19.13-20 3.198 0 6.214.931 8.87 2.58z" fill="#2F7AD3"/><path d="M15.44 16.388h1.94v.972c0 1.07.873 1.945 1.94 1.945h5.82c1.067 0 1.94-.875 1.94-1.945v-.972h1.94v4.861h1.94v-4.86c0-1.07-.873-1.945-1.94-1.945h-4.055c-.407-1.127-1.474-1.944-2.735-1.944s-2.328.817-2.735 1.944H15.44c-1.067 0-1.94.875-1.94 1.944v13.61c0 1.07.873 1.944 1.94 1.944h4.85v-1.944h-4.85v-13.61zm6.79-1.944c.534 0 .97.438.97.972a.974.974 0 01-.97.972.974.974 0 01-.97-.972c0-.534.436-.972.97-.972z" fill="#fff"/><path d="M32.221 31.845l-1.94-1.944c.563-.982.922-2.168.495-3.548-.514-1.673-1.979-2.965-3.725-3.13-2.784-.273-5.073 2.012-4.802 4.811.175 1.74 1.455 3.218 3.124 3.733 1.387.428 2.56.068 3.54-.496l1.94 1.945a.953.953 0 001.358 0 .97.97 0 00.01-1.371zm-5.626-1.847a2.404 2.404 0 01-2.425-2.43 2.404 2.404 0 012.425-2.43 2.404 2.404 0 012.425 2.43 2.404 2.404 0 01-2.425 2.43z" fill="#fff"/></svg>